# xmcd
#
# Track frame offsets:
#	150
#	24292
#	53461
#	66308
#	79478
#	92257
#	102054
#	128809
#	154186
#	168203
#	180905
#	200680
#	218869
#	235776
#	261318
#
# Disc length: 3670 seconds
#
# Revision: 1
# Processed by: cddbd v1.5.2PL0 Copyright (c) Steve Scherf et al.
# Submitted via: audiograbber 1.83.01
#
DISCID=bc0e540f
DTITLE=Léo Ferré - Les Vieux Copains
DYEAR=1950
DGENRE=Chansons
TTITLE0=Vison L'Editeur
TTITLE1=Les Vieux Copains
TTITLE2=Le Fleuve Aux Amants
TTITLE3=En Amour
TTITLE4=La Maline (A. Rimbaud)
TTITLE5=Notre Amour
TTITLE6=Où Vont-ils ?
TTITLE7=C'est Une ...
TTITLE8=Elle Tourne la Terre
TTITLE9=La Poisse
TTITLE10=Cloclo la Cloche
TTITLE11=Y'A une Etoile
TTITLE12=Automne Malade (G. Appolinaire)
TTITLE13=L'Europe s'Ennuyait
TTITLE14=La Chanson Triste
EXTD=
EXTT0=
EXTT1=
EXTT2=
EXTT3=
EXTT4=
EXTT5=
EXTT6=
EXTT7=
EXTT8=
EXTT9=
EXTT10=
EXTT11=
EXTT12=
EXTT13=
EXTT14=
PLAYORDER=
